# Blender 3.4.1
# www.blender.org
mtllib grass.mtl
o Plane.001
v -1.000000 0.015192 -0.173648
v 1.000000 0.015192 -0.173648
v -1.000000 1.492404 0.086824
v 1.000000 1.492404 0.086824
vn -0.0000 -0.1736 0.9848
vt 0.000000 0.000000
vt 1.000000 0.000000
vt 0.000000 1.000000
vt 1.000000 1.000000
s 1
usemtl Material.001
f 1/1/1 2/2/1 4/4/1 3/3/1
o Plane.002
v 0.173648 0.015192 1.000000
v 0.173648 0.015192 -1.000000
v -0.086824 1.492404 1.000000
v -0.086824 1.492404 -1.000000
vn 0.9848 0.1736 -0.0000
vt 0.000000 0.000000
vt 1.000000 0.000000
vt 0.000000 1.000000
vt 1.000000 1.000000
s 1
usemtl Material.001
f 5/5/2 6/6/2 8/8/2 7/7/2
o Plane.003
v 0.584319 0.015192 0.829895
v -0.829895 0.015192 -0.584319
v 0.768501 1.492404 0.645713
v -0.645713 1.492404 -0.768501
vn 0.6964 -0.1736 -0.6964
vt 0.000000 0.000000
vt 1.000000 0.000000
vt 0.000000 1.000000
vt 1.000000 1.000000
s 1
usemtl Material.001
f 9/9/3 10/10/3 12/12/3 11/11/3
o Plane.004
v 0.584319 0.015192 -0.829895
v -0.829895 0.015192 0.584319
v 0.768501 1.492404 -0.645713
v -0.645713 1.492404 0.768501
vn -0.6964 0.1736 -0.6964
vt 0.000000 0.000000
vt 1.000000 0.000000
vt 0.000000 1.000000
vt 1.000000 1.000000
s 1
usemtl Material.001
f 13/13/4 14/14/4 16/16/4 15/15/4
